<svg width="247" height="40" viewBox="0 0 247 40" fill="none" xmlns="http://www.w3.org/2000/svg">
<path d="M35.3027 3.50194V12.8018H24.0555V39.4547H11.3249V12.8018H0V3.50127L35.3027 3.50194ZM63.3018 32.7621C63.9262 32.7621 64.3819 32.6843 64.6687 32.5288L63.6918 38.91C62.4433 39.6362 61.09 39.9993 59.6319 39.9993C57.4194 39.9993 55.5712 39.6102 54.0872 38.832C52.5768 38.0543 51.5743 36.9129 51.0797 35.4081C50.2206 36.8347 48.9841 37.9503 47.3703 38.7547C45.7556 39.5845 43.7374 39.9993 41.3158 39.9993C38.478 39.9993 36.3692 39.4416 34.9896 38.326C33.6095 37.2367 32.9195 35.6285 32.9195 33.5014C32.9195 31.2188 33.7395 29.4031 35.3797 28.0542C37.0198 26.6791 39.7535 25.5767 43.5806 24.7469L48.9701 23.5403V22.451C48.9701 21.6207 48.7617 20.9723 48.3451 20.5057C47.9285 20.039 47.3168 19.8057 46.5098 19.8057C45.6507 19.8057 44.9607 20.039 44.4397 20.5057C43.945 20.9985 43.6718 21.8674 43.6201 23.1123L33.2319 21.517C33.5183 18.4041 34.833 15.9788 37.1762 14.2411C39.5193 12.5291 42.8778 11.6731 47.2519 11.6731C52.0942 11.6731 55.6738 12.594 57.9906 14.4358C60.3079 16.3033 61.4665 19.1177 61.4665 22.879V30.5055C61.4665 32.0099 62.0782 32.7621 63.3018 32.7621ZM46.6269 33.1901C47.3299 33.1901 47.9026 32.9568 48.3451 32.4901C48.7617 32.0488 48.9701 31.3873 48.9701 30.5055V27.8989L47.1736 28.4429C46.4184 28.6766 45.8196 29.0268 45.3771 29.4935C44.9346 29.9868 44.7134 30.5835 44.7134 31.2835C44.7134 31.9057 44.8956 32.3726 45.26 32.6841C45.6244 33.0214 46.0801 33.1901 46.6269 33.1901ZM78.8833 1.32264V28.5995C78.8833 29.7408 79.0526 30.5579 79.3912 31.0508C79.7034 31.5437 80.2891 31.7901 81.1482 31.7901C81.7994 31.7901 82.4502 31.6992 83.1005 31.5175L82.5539 38.2494C81.9031 38.768 80.9138 39.1829 79.5859 39.494C78.2843 39.8313 77.0086 40 75.7587 40C72.3745 40 69.9536 39.2738 68.4958 37.8214C67.0377 36.3685 66.3086 33.9301 66.3086 30.5062V1.32264H78.8847H78.8833ZM105.946 39.4547L101.025 29.9215L97.55 34.1628V39.4547H84.9753V1.32264H97.55V21.8676L105.516 12.2178H119.03L109.306 22.879L119.615 39.4547H105.946ZM170.81 12.2178L163.351 39.4547H147.731L145.739 31.0501L144.646 24.4356H144.451L143.396 31.0115L141.365 39.4547H125.745L118.325 12.2178H131.329L133.516 25.2522L134.336 31.4001H134.531L135.625 25.1749L138.359 12.2178H150.738L153.511 25.3309L154.565 31.4001H154.76L155.58 25.2916L157.767 12.2178H170.81ZM178.738 10.4665C176.239 10.4665 174.482 10.0645 173.466 9.26051C172.425 8.48275 171.904 7.14677 171.904 5.25258C171.904 3.35928 172.425 2.01041 173.467 1.20598C174.482 0.401993 176.239 0 178.738 0C181.211 0 182.968 0.402215 184.009 1.20665C185.051 2.01063 185.572 3.3595 185.572 5.25325C185.572 7.14655 185.051 8.4823 184.009 9.26051C182.968 10.0649 181.211 10.4672 178.738 10.4672L178.738 10.4665ZM185.026 12.2178V39.4547H172.451V12.2178H185.026ZM201.974 39.9993C198.563 39.9993 195.7 39.6749 193.383 39.026C191.039 38.4038 189.074 37.3794 187.486 35.9527L192.992 29.3382C194.06 30.2715 195.283 31.0237 196.663 31.5948C198.043 32.1912 199.501 32.4895 201.037 32.4895C201.713 32.4895 202.286 32.4248 202.755 32.2955C203.197 32.1657 203.419 31.9581 203.419 31.6728C203.419 31.3355 203.119 31.037 202.521 30.7775C201.896 30.4922 200.828 30.2068 199.319 29.9215C195.388 29.1695 192.524 28.0673 190.728 26.6149C188.931 25.1882 188.033 23.3723 188.033 21.167C188.033 19.5586 188.566 18.041 189.634 16.6144C190.701 15.162 192.354 13.9818 194.594 13.0738C196.806 12.14 199.553 11.6731 202.833 11.6731C206.036 11.6731 208.717 12.0491 210.878 12.8011C213.065 13.5793 214.77 14.5262 215.993 15.6417L210.878 21.7116C209.185 20.0254 206.699 19.1823 203.419 19.1823C202.455 19.1823 201.752 19.2732 201.31 19.455C200.867 19.6363 200.646 19.8697 200.646 20.155C200.646 20.5963 201.752 20.9597 203.965 21.245C208.157 21.8414 211.229 22.853 213.182 24.2796C215.108 25.7062 216.072 27.6778 216.072 30.1942C216.072 33.0217 214.9 35.3692 212.557 37.2367C210.24 39.0785 206.712 39.9993 201.974 39.9993H201.974ZM247 24.9796C247 26.3547 246.909 27.4444 246.727 28.2489H229.349C229.531 29.5715 229.909 30.4793 230.482 30.9721C231.08 31.4388 231.966 31.6721 233.137 31.6721C234.907 31.6721 236.001 30.8942 236.417 29.3382L246.532 32.0615C245.907 34.6556 244.384 36.6272 241.962 37.976C239.541 39.3249 236.6 39.9993 233.137 39.9993C227.956 39.9993 224.025 38.7802 221.343 36.3421C218.662 33.9034 217.321 30.4013 217.321 25.8356C217.321 21.3223 218.649 17.8335 221.305 15.3691C223.934 12.9051 227.657 11.6731 232.473 11.6731C237.159 11.6731 240.752 12.8665 243.252 15.2531C245.751 17.665 247 20.9072 247 24.9796ZM232.512 19.961C231.575 19.961 230.846 20.2332 230.325 20.7777C229.83 21.3225 229.505 22.2694 229.349 23.6183H235.246C235.142 22.373 234.881 21.4521 234.465 20.8557C234.048 20.2592 233.397 19.961 232.512 19.961Z" fill="#F1E7FF"/>
</svg>
