<svg data-v-423bf9ae="" xmlns="http://www.w3.org/2000/svg" viewBox="0 0 369.1634337137424 60" class="font"><!----><!----><!----><g data-v-423bf9ae="" id="d691869f-160c-42b7-9f63-7b98fc74ac03" fill="#F1E7FF" transform="matrix(5.836575984954834,0,0,5.836575984954834,-1.6342500448226929,-16.809341430664062)"><path d="M9.32 3.78L9.32 6.17L6.44 6.17L6.44 13.02L3.18 13.02L3.18 6.17L0.28 6.17L0.28 3.78L9.32 3.78ZM16.49 11.30Q16.73 11.30 16.84 11.24L16.84 11.24L16.59 12.88Q16.11 13.16 15.55 13.16L15.55 13.16Q14.70 13.16 14.13 12.86Q13.55 12.56 13.36 11.98L13.36 11.98Q13.03 12.53 12.41 12.84Q11.79 13.16 10.86 13.16L10.86 13.16Q9.77 13.16 9.24 12.73Q8.71 12.31 8.71 11.49L8.71 11.49Q8.71 10.61 9.34 10.09Q9.97 9.56 11.44 9.24L11.44 9.24L12.82 8.93L12.82 8.65Q12.82 8.33 12.66 8.15Q12.50 7.97 12.19 7.97L12.19 7.97Q11.86 7.97 11.66 8.15Q11.47 8.34 11.45 8.82L11.45 8.82L8.79 8.41Q8.90 7.21 9.80 6.54Q10.70 5.88 12.38 5.88L12.38 5.88Q14.24 5.88 15.13 6.59Q16.02 7.31 16.02 8.76L16.02 8.76L16.02 10.72Q16.02 11.30 16.49 11.30L16.49 11.30ZM12.22 11.41Q12.49 11.41 12.66 11.23Q12.82 11.06 12.82 10.72L12.82 10.72L12.82 10.05L12.36 10.19Q12.07 10.28 11.90 10.46Q11.73 10.65 11.73 10.92L11.73 10.92Q11.73 11.16 11.87 11.28Q12.01 11.41 12.22 11.41L12.22 11.41ZM20.48 3.22L20.48 10.23Q20.48 10.67 20.61 10.86Q20.73 11.05 21.06 11.05L21.06 11.05Q21.31 11.05 21.56 10.98L21.56 10.98L21.42 12.71Q21.17 12.91 20.66 13.03Q20.16 13.16 19.68 13.16L19.68 13.16Q18.38 13.16 17.82 12.60Q17.26 12.04 17.26 10.72L17.26 10.72L17.26 3.22L20.48 3.22ZM27.41 13.02L26.15 10.57L25.26 11.66L25.26 13.02L22.04 13.02L22.04 3.22L25.26 3.22L25.26 8.50L27.30 6.02L30.76 6.02L28.27 8.76L30.91 13.02L27.41 13.02ZM44.02 6.02L42.11 13.02L38.11 13.02L37.60 10.86L37.32 9.16L37.27 9.16L37.00 10.85L36.48 13.02L32.48 13.02L30.58 6.02L33.91 6.02L34.47 9.37L34.68 10.95L34.73 10.95L35.01 9.35L35.71 6.02L38.88 6.02L39.59 9.39L39.86 10.95L39.91 10.95L40.12 9.38L40.68 6.02L44.02 6.02ZM46.05 5.57Q45.09 5.57 44.70 5.26Q44.30 4.96 44.30 4.23L44.30 4.23Q44.30 3.50 44.70 3.19Q45.09 2.88 46.05 2.88L46.05 2.88Q47.00 2.88 47.40 3.19Q47.80 3.50 47.80 4.23L47.80 4.23Q47.80 4.96 47.40 5.26Q47.00 5.57 46.05 5.57L46.05 5.57ZM47.66 6.02L47.66 13.02L44.44 13.02L44.44 6.02L47.66 6.02ZM52.00 13.16Q50.69 13.16 49.80 12.91Q48.90 12.67 48.29 12.12L48.29 12.12L49.70 10.42Q50.11 10.78 50.64 11.00Q51.17 11.23 51.76 11.23L51.76 11.23Q52.02 11.23 52.20 11.18Q52.37 11.13 52.37 11.02L52.37 11.02Q52.37 10.89 52.14 10.79Q51.90 10.68 51.32 10.57L51.32 10.57Q49.81 10.28 49.12 9.72Q48.43 9.17 48.43 8.32L48.43 8.32Q48.43 7.70 48.84 7.15Q49.25 6.59 50.11 6.24Q50.96 5.88 52.22 5.88L52.22 5.88Q53.45 5.88 54.28 6.17Q55.12 6.47 55.59 6.90L55.59 6.90L54.28 8.46Q53.63 7.81 52.37 7.81L52.37 7.81Q52.00 7.81 51.83 7.88Q51.66 7.95 51.66 8.06L51.66 8.06Q51.66 8.23 52.51 8.34L52.51 8.34Q54.12 8.57 54.87 9.12Q55.61 9.67 55.61 10.64L55.61 10.64Q55.61 11.73 54.71 12.45Q53.82 13.16 52.00 13.16L52.00 13.16ZM63.53 9.30Q63.53 9.83 63.46 10.14L63.46 10.14L59.01 10.14Q59.08 10.65 59.30 10.84Q59.53 11.02 59.98 11.02L59.98 11.02Q60.66 11.02 60.82 10.42L60.82 10.42L63.41 11.12Q63.17 12.12 62.24 12.64Q61.31 13.16 59.98 13.16L59.98 13.16Q57.99 13.16 56.96 12.22Q55.93 11.28 55.93 9.52L55.93 9.52Q55.93 7.78 56.95 6.83Q57.96 5.88 59.81 5.88L59.81 5.88Q61.61 5.88 62.57 6.80Q63.53 7.73 63.53 9.30L63.53 9.30ZM59.82 8.01Q59.46 8.01 59.26 8.22Q59.07 8.43 59.01 8.95L59.01 8.95L60.52 8.95Q60.48 8.47 60.32 8.24Q60.16 8.01 59.82 8.01L59.82 8.01Z"></path></g><!----><!----></svg>